<svg width="25" height="24" viewBox="0 0 25 24" fill="none" xmlns="http://www.w3.org/2000/svg">
<path d="M8 1C7.872 1 7.74398 1.04898 7.64648 1.14648C7.45148 1.34148 7.45148 1.65851 7.64648 1.85351L8.95703 3.16406C7.46911 4.25591 6.5 6.01274 6.5 7.99998H18.5C18.5 6.01274 17.5309 4.25591 16.043 3.16406L17.3535 1.85351C17.5485 1.65751 17.5485 1.34248 17.3535 1.14648C17.1585 0.951485 16.8415 0.951485 16.6465 1.14648L15.1641 2.6289C14.3606 2.22956 13.4582 2 12.5 2C11.5418 2 10.6394 2.22956 9.83594 2.6289L8.35352 1.14648C8.25602 1.04898 8.128 1 8 1ZM9.5 4.99999H10.5V5.99998H9.5V4.99999ZM14.5 4.99999H15.5V5.99998H14.5V4.99999ZM4.5 8.99998C3.948 8.99998 3.5 9.44797 3.5 9.99997V16C3.5 16.552 3.948 17 4.5 17C5.052 17 5.5 16.552 5.5 16V9.99997C5.5 9.44797 5.052 8.99998 4.5 8.99998ZM6.5 8.99998V17C6.5 17.5519 6.948 17.9999 7.5 17.9999H8.5V21.4999C8.5 22.3279 9.172 22.9999 10 22.9999C10.828 22.9999 11.5 22.3279 11.5 21.4999V17.9999H13.5V21.4999C13.5 22.3279 14.172 22.9999 15 22.9999C15.828 22.9999 16.5 22.3279 16.5 21.4999V17.9999H17.5C18.052 17.9999 18.5 17.5519 18.5 17V8.99998H6.5ZM20.5 8.99998C19.948 8.99998 19.5 9.44797 19.5 9.99997V16C19.5 16.552 19.948 17 20.5 17C21.052 17 21.5 16.552 21.5 16V9.99997C21.5 9.44797 21.052 8.99998 20.5 8.99998Z" fill="#333332"/>
</svg>
