<svg width="25" height="24" viewBox="0 0 25 24" fill="none" xmlns="http://www.w3.org/2000/svg">
<path d="M18.5938 1.80199C18.4489 1.79524 18.3026 1.80408 18.1563 1.82933L11.5 2.98948V10.8H20.5001V3.80003C20.5001 3.20803 20.2402 2.64978 19.7872 2.26878C19.4474 1.98303 19.0286 1.82224 18.5938 1.80199ZM9.50002 3.33714L4.15626 4.26878C3.19725 4.43678 2.5 5.26548 2.5 6.23947V10.8H9.50002V3.33714ZM2.5 12.8V17.3605C2.5 18.3345 3.19725 19.1632 4.15626 19.3312L9.50002 20.2629V12.8H2.5ZM11.5 12.8V20.6105L18.1563 21.7707C18.2713 21.7907 18.387 21.8 18.502 21.8C18.969 21.8 19.4232 21.6353 19.7872 21.3293C20.2402 20.9483 20.5001 20.391 20.5001 19.8V12.8H11.5Z" fill="#333332"/>
</svg>
