<svg width="55" height="22" viewBox="0 0 55 22" fill="none" xmlns="http://www.w3.org/2000/svg">
<path d="M19.7986 21.5893H23.2132L23.2132 0.41181L19.7986 0.41181L19.7986 21.5893Z" fill="#FF8769"/>
<path fill-rule="evenodd" clip-rule="evenodd" d="M43.2239 22C49.299 22 54.2239 17.0751 54.2239 11C54.2239 4.92487 49.299 0 43.2239 0C37.1488 0 32.2239 4.92487 32.2239 11C32.2239 17.0751 37.1488 22 43.2239 22ZM43.2235 18.5858C47.4129 18.5858 50.809 15.1897 50.809 11.0004C50.809 6.81105 47.4129 3.41494 43.2235 3.41494C39.0342 3.41494 35.6381 6.81105 35.6381 11.0004C35.6381 15.1897 39.0342 18.5858 43.2235 18.5858Z" fill="#FF8769"/>
<path d="M26.2164 21.5578H29.6311V0.41181C27.7452 0.41181 26.2164 1.94059 26.2164 3.82643V21.5578Z" fill="#FF8769"/>
<path fill-rule="evenodd" clip-rule="evenodd" d="M13.3853 7.06598C12.0704 5.96505 10.4417 5.2054 8.3973 5.2054C3.7596 5.2054 0 8.965 0 13.6027C0 18.2404 3.7596 22 8.3973 22C10.4412 22 12.0705 21.247 13.3853 20.1461L13.4852 21.5895H16.7948L16.7948 5.61686L13.4864 5.61686L13.3853 7.06598ZM13.3849 13.603C13.3849 16.3577 11.1517 18.5909 8.39702 18.5909C5.6423 18.5909 3.40916 16.3577 3.40916 13.603C3.40916 10.8483 5.6423 8.61516 8.39702 8.61516C11.1517 8.61516 13.3849 10.8483 13.3849 13.603Z" fill="#FF8769"/>
</svg>
