<svg width="32" height="32" viewBox="0 0 32 32" fill="none" xmlns="http://www.w3.org/2000/svg">
<path d="M18.159 21.1477C17.9563 21.358 17.6276 21.3579 17.4247 21.1474C17.2219 20.9369 17.2218 20.5958 17.4245 20.3854L20.1261 17.5819C20.3289 17.3714 20.3289 17.0301 20.1261 16.8196C19.9232 16.6091 19.5943 16.6091 19.3915 16.8196L16.6899 19.6231C16.4872 19.8335 16.1584 19.8334 15.9556 19.6229C15.7527 19.4124 15.7526 19.0712 15.9554 18.8609L18.6569 16.0574C18.8598 15.8469 18.8598 15.5056 18.6569 15.2951C18.4541 15.0846 18.1252 15.0846 17.9223 15.2951L15.2208 18.0986C15.0181 18.3089 14.6893 18.3088 14.4864 18.0983C14.2836 17.8878 14.2835 17.5467 14.4862 17.3363L17.1878 14.5328C17.3906 14.3223 17.3906 13.981 17.1878 13.7705C16.9849 13.56 16.656 13.56 16.4532 13.7705L13.7516 16.574C13.5489 16.7844 13.2201 16.7843 13.0173 16.5738C12.8144 16.3633 12.8143 16.0221 13.0171 15.8117L18.1621 10.4727C18.3649 10.2622 18.3649 9.92089 18.1621 9.71039C17.9592 9.49989 17.6303 9.49989 17.4275 9.71039L15.7184 11.4839C15.5157 11.6943 15.1869 11.6942 14.9841 11.4837C14.7812 11.2732 14.7811 10.932 14.9839 10.7217L23.3886 1.9999L24.1232 2.76216L24.1176 2.76793L24.8522 3.53021L24.8577 3.52445L29.9997 8.86037L18.159 21.1477Z" fill="#655785"/>
<path d="M20.1305 17.5582C20.3332 17.3478 20.3331 17.0066 20.1303 16.7961C19.9274 16.5856 19.5986 16.5855 19.3959 16.7959L16.694 19.5997C16.4912 19.8102 16.1623 19.8102 15.9594 19.5997C15.7566 19.3892 15.7566 19.0479 15.9594 18.8375L18.6613 16.0336C18.8641 15.8233 18.864 15.4821 18.6612 15.2716C18.4583 15.0611 18.1295 15.061 17.9268 15.2714L15.2249 18.0752C15.022 18.2857 14.6932 18.2857 14.4903 18.0752C14.2874 17.8647 14.2874 17.5234 14.4903 17.3129L17.1922 14.5091C17.3949 14.2987 17.3949 13.9575 17.192 13.747C16.9892 13.5365 16.6604 13.5364 16.4576 13.7468L13.7557 16.5506C13.5529 16.7611 13.224 16.7611 13.0212 16.5506C12.8183 16.3401 12.8183 15.9988 13.0212 15.7883L15.723 12.9845C15.9258 12.7741 15.9257 12.4329 15.7229 12.2224C15.52 12.0119 15.1912 12.0119 14.9885 12.2223L9.84291 17.5619C9.64006 17.7724 9.31118 17.7724 9.10833 17.5619C8.90549 17.3514 8.90549 17.0101 9.10833 16.7996L10.8176 15.0259C11.0204 14.8155 11.0203 14.4743 10.8174 14.2638C10.6146 14.0533 10.2858 14.0532 10.0831 14.2636L1.99997 22.6516L2.73453 23.4139L2.74008 23.4081L3.47465 24.1704L3.4691 24.1761L8.61108 29.5121L20.1305 17.5582Z" fill="#A494C8"/>
</svg>
