<svg width="20" height="20" viewBox="0 0 20 20" fill="none" xmlns="http://www.w3.org/2000/svg">
<rect width="20" height="20" rx="5" fill="#4B4A49"/>
<path d="M7 8.00037H5V15.0004H7V8.00037Z" fill="#F0EDEA"/>
<path d="M6 7C6.55228 7 7 6.55228 7 6C7 5.44772 6.55228 5 6 5C5.44772 5 5 5.44772 5 6C5 6.55228 5.44772 7 6 7Z" fill="#F0EDEA"/>
<path d="M12.5 6.99957C14.4327 6.99957 15.9996 8.56617 16 10.4988L16 14.9996H14V10.4855C14 9.66485 13.3284 8.99957 12.5 8.99957C11.6716 8.99957 11 9.66485 11 10.4855L11 13.6628L11 14.9996H9V10.4996C9 8.56658 10.567 6.99957 12.5 6.99957Z" fill="#F0EDEA"/>
</svg>
