<svg width="24" height="24" viewBox="0 0 24 24" fill="none" xmlns="http://www.w3.org/2000/svg">
<rect x="13.4983" y="1" width="1.12821" height="6.58811" transform="rotate(19.0909 13.4983 1)" fill="#9AC5B9"/>
<rect x="16.675" y="8.68848" width="1" height="9.36801" transform="rotate(88.9788 16.675 8.68848)" fill="white"/>
<path d="M11.918 4.21657C9.61852 4.21657 7.75443 6.08066 7.75443 8.38013L16.0815 8.38013C16.0815 6.08066 14.2175 4.21657 11.918 4.21657Z" fill="white"/>
<path d="M15.9995 10L7.99951 10.0029L8.97433 22.0039L15.0338 22.0018L15.9995 10Z" fill="#9AC5B9"/>
<circle cx="10.9999" cy="20.0004" r="1" transform="rotate(-0.0212226 10.9999 20.0004)" fill="#2B574B"/>
<circle cx="13.9999" cy="19.0004" r="1" transform="rotate(-0.0212226 13.9999 19.0004)" fill="#2B574B"/>
<circle cx="9.99988" cy="17.0004" r="1" transform="rotate(-0.0212226 9.99988 17.0004)" fill="#2B574B"/>
<circle cx="12.9999" cy="16.0004" r="1" transform="rotate(-0.0212226 12.9999 16.0004)" fill="#2B574B"/>
</svg>
