<svg width="24" height="24" viewBox="0 0 24 24" fill="none" xmlns="http://www.w3.org/2000/svg">
<path d="M6.30176 20.699L20.701 6.29971C21.6951 7.29377 21.6951 8.90546 20.701 9.89953L9.90157 20.699C8.90751 21.693 7.29582 21.693 6.30176 20.699Z" fill="#9AC5B9"/>
<path d="M17.6982 3.29993L3.29898 17.6992C2.30491 16.7051 2.30491 15.0934 3.29898 14.0994L14.0984 3.29992C15.0925 2.30586 16.7042 2.30587 17.6982 3.29993Z" fill="#9AC5B9"/>
<path d="M3.97786 20.0583C3.54828 19.6288 3.54828 18.9323 3.97786 18.5027L18.7844 3.69621C19.2139 3.26663 19.9104 3.26663 20.34 3.69621C20.7696 4.12578 20.7696 4.82226 20.34 5.25184L5.5335 20.0583C5.10392 20.4879 4.40744 20.4879 3.97786 20.0583Z" fill="white"/>
</svg>
