<svg width="233" height="364" viewBox="0 0 233 364" fill="none" xmlns="http://www.w3.org/2000/svg">
<path d="M100.5 354.001C156.005 354.001 201 309.677 201 255.001H0C0 309.677 44.9954 354.001 100.5 354.001Z" fill="#193047"/>
<rect x="170.68" y="2.99512" width="15.4449" height="74.5784" transform="rotate(19.098 170.68 2.99512)" fill="#193047"/>
<rect x="217.74" y="148.502" width="15.4449" height="139.005" transform="rotate(88.9858 217.74 148.502)" fill="#193047"/>
<path d="M145.578 82.1765C111.505 83.9706 85.3383 113.047 87.1324 147.119L210.521 140.622C208.727 106.549 179.651 80.3823 145.578 82.1765Z" fill="#193047"/>
<path d="M211.658 169.165L88.0982 169.195L103.589 354.531L196.259 354.508L211.658 169.165Z" fill="#FFD36E"/>
<circle cx="115.177" cy="331.363" r="7.72247" transform="rotate(-0.0141748 115.177 331.363)" fill="#193047"/>
<circle cx="132.549" cy="313.98" r="7.72247" transform="rotate(-0.0141748 132.549 313.98)" fill="#193047"/>
<circle cx="132.53" cy="279.231" r="7.72247" transform="rotate(-0.0141748 132.53 279.231)" fill="#193047"/>
<circle cx="167.288" cy="279.219" r="7.72247" transform="rotate(-0.0141748 167.288 279.219)" fill="#193047"/>
<circle cx="149.921" cy="331.351" r="7.72247" transform="rotate(-0.0141748 149.921 331.351)" fill="#193047"/>
<circle cx="184.678" cy="331.345" r="7.72247" transform="rotate(-0.0141748 184.678 331.345)" fill="#193047"/>
<circle cx="149.914" cy="296.601" r="7.72247" transform="rotate(-0.0141748 149.914 296.601)" fill="#193047"/>
<circle cx="184.666" cy="296.592" r="7.72247" transform="rotate(-0.0141748 184.666 296.592)" fill="#193047"/>
<circle cx="115.159" cy="296.61" r="7.72247" transform="rotate(-0.0141748 115.159 296.61)" fill="#193047"/>
<circle cx="167.295" cy="313.972" r="7.72247" transform="rotate(-0.0141748 167.295 313.972)" fill="#193047"/>
<circle cx="28" cy="227.001" r="20" fill="#FFD36E"/>
</svg>
