<svg width="341" height="400" viewBox="0 0 341 400" fill="none" xmlns="http://www.w3.org/2000/svg">
<path d="M175.254 126C84.2103 126 41.8165 194 32 228H323C311.686 194 266.297 126 175.254 126Z" fill="white"/>
<rect y="135.705" width="30" height="177" transform="rotate(-18.8741 0 135.705)" fill="#FFD36E"/>
<rect x="182.109" y="-32" width="30" height="177" transform="rotate(8.15528 182.109 -32)" fill="#FFD36E"/>
<rect x="221.109" y="90" width="30" height="177" transform="rotate(8.15528 221.109 90)" fill="#FFD36E"/>
<rect x="277.913" y="78" width="30" height="177" transform="rotate(12.3685 277.913 78)" fill="#FFD36E"/>
<rect x="51" y="83.3063" width="30" height="177" transform="rotate(-10.188 51 83.3063)" fill="#FFD36E"/>
<rect x="81" y="-94.6937" width="30" height="177" transform="rotate(-10.188 81 -94.6937)" fill="#FFD36E"/>
<rect x="310.913" y="150" width="30" height="177" transform="rotate(12.3685 310.913 150)" fill="#FFD36E"/>
<path d="M31 227H325L305 526H51L31 227Z" fill="#193047"/>
</svg>
