<svg width="326" height="400" viewBox="0 0 326 400" fill="none" xmlns="http://www.w3.org/2000/svg">
<path d="M276.278 348.895L276.288 348.895L276.288 177.812C276.288 163.974 265.094 152.755 251.284 152.755C237.474 152.755 226.279 163.974 226.279 177.812L226.279 341.012L226.258 341.012L226.258 520.026C226.258 533.868 237.455 545.089 251.268 545.089C265.08 545.089 276.278 533.868 276.278 520.026L276.278 348.895Z" fill="#193047"/>
<path fill-rule="evenodd" clip-rule="evenodd" d="M226.544 348.609L226.565 348.609L226.565 179.077C198.946 179.077 176.556 201.467 176.556 229.086L176.556 336.465L176.525 336.465L176.525 468.161C176.525 495.786 198.919 518.18 226.544 518.18L226.544 348.609Z" fill="#FFD36E"/>
<path fill-rule="evenodd" clip-rule="evenodd" d="M275.99 341.31L275.99 179.661C303.609 179.661 325.999 202.051 325.999 229.67L325.999 341.31L326 341.31L326 468.746C326 496.371 303.606 518.765 275.981 518.765L275.981 341.31L275.99 341.31Z" fill="#FFD36E"/>
<path d="M99.7526 75.0506L99.7634 75.0506L99.7634 -96.0321C99.7634 -109.871 88.5685 -121.09 74.759 -121.09C60.9494 -121.09 49.7545 -109.871 49.7545 -96.0321L49.7545 67.1671L49.7331 67.1671L49.7331 246.182C49.7331 260.024 60.9304 271.245 74.7428 271.245C88.5553 271.245 99.7526 260.024 99.7526 246.182L99.7526 75.0506Z" fill="#193047"/>
<path fill-rule="evenodd" clip-rule="evenodd" d="M50.0195 74.7648L50.0398 74.7648L50.0398 -94.7677C22.4206 -94.7677 0.0308833 -72.3779 0.0308821 -44.7588L0.0308775 62.6209L-6.8651e-06 62.6209L-1.26095e-05 194.316C-1.38145e-05 221.941 22.3945 244.336 50.0195 244.336L50.0195 74.7648Z" fill="#FFD36E"/>
<path fill-rule="evenodd" clip-rule="evenodd" d="M99.465 67.4653L99.465 -94.1837C127.084 -94.1837 149.474 -71.7939 149.474 -44.1748L149.474 67.4653L149.475 67.4653L149.475 194.901C149.475 222.526 127.081 244.921 99.4556 244.921L99.4556 67.4653L99.465 67.4653Z" fill="#FFD36E"/>
<path d="M276.278 -82.8598L276.288 -82.8598L276.288 -253.942C276.288 -267.781 265.094 -279 251.284 -279C237.474 -279 226.279 -267.781 226.279 -253.942L226.279 -90.7433L226.258 -90.7433L226.258 88.2713C226.258 102.113 237.455 113.334 251.268 113.334C265.08 113.334 276.278 102.113 276.278 88.2714L276.278 -82.8598Z" fill="#193047"/>
<path fill-rule="evenodd" clip-rule="evenodd" d="M226.544 -83.1455L226.565 -83.1455L226.565 -252.678C198.946 -252.678 176.556 -230.288 176.556 -202.669L176.556 -95.2895L176.525 -95.2895L176.525 36.4059C176.525 64.0309 198.919 86.4254 226.544 86.4254L226.544 -83.1455Z" fill="white"/>
<path fill-rule="evenodd" clip-rule="evenodd" d="M275.99 -90.445L275.99 -252.094C303.609 -252.094 325.999 -229.704 325.999 -202.085L325.999 -90.445L326 -90.445L326 36.9908C326 64.6158 303.606 87.0103 275.981 87.0103L275.981 -90.445L275.99 -90.445Z" fill="white"/>
<path d="M99.7526 505.806L99.7634 505.806L99.7634 334.723C99.7634 320.885 88.5685 309.666 74.759 309.666C60.9494 309.666 49.7545 320.885 49.7545 334.723L49.7545 497.923L49.7331 497.923L49.7331 676.937C49.7331 690.779 60.9304 702 74.7428 702C88.5553 702 99.7526 690.779 99.7526 676.937L99.7526 505.806Z" fill="#193047"/>
<path fill-rule="evenodd" clip-rule="evenodd" d="M50.0195 505.52L50.0398 505.52L50.0398 335.988C22.4206 335.988 0.0308833 358.378 0.0308821 385.997L0.0308775 493.376L-6.8651e-06 493.376L-1.26095e-05 625.072C-1.38145e-05 652.697 22.3945 675.091 50.0195 675.091L50.0195 505.52Z" fill="white"/>
<path fill-rule="evenodd" clip-rule="evenodd" d="M99.465 498.221L99.465 336.572C127.084 336.572 149.474 358.962 149.474 386.581L149.474 498.221L149.475 498.221L149.475 625.657C149.475 653.282 127.081 675.676 99.4556 675.676L99.4556 498.221L99.465 498.221Z" fill="white"/>
</svg>
