<svg width="381" height="400" viewBox="0 0 381 400" fill="none" xmlns="http://www.w3.org/2000/svg">
<path d="M96 -157H382V38.1827V161H96V38.1827V-157Z" fill="#FFD36E"/>
<path fill-rule="evenodd" clip-rule="evenodd" d="M151.277 400V173H178.812V400H151.277ZM200.607 400V173H228.142V400H200.607ZM254.465 400V173H282V400H254.465ZM96 400V173H123.535V400H96Z" fill="#FDD277"/>
<path fill-rule="evenodd" clip-rule="evenodd" d="M309.277 400V173H336.812V400H309.277ZM358.607 400V173H386.142V400H358.607ZM412.465 400V173H440V400H412.465ZM254 400V173H281.535V400H254Z" fill="#FDD277"/>
<path d="M95.6651 93.8693L95.6651 188L381.056 188L381.056 93.8693L95.6651 93.8693Z" fill="#193047"/>
<path d="M0.867724 126.357L0.867723 155.512L89.3339 155.512L89.3339 126.357L0.867724 126.357Z" fill="white"/>
</svg>
