<svg width="366" height="376" viewBox="0 0 366 376" fill="none" xmlns="http://www.w3.org/2000/svg">
<circle cx="226" cy="150" r="226" fill="#193047"/>
<circle cx="226" cy="150" r="209" fill="#FFD36E"/>
<circle cx="258" cy="247" r="42" fill="white"/>
<path d="M247 271H262L264 325H245L247 271Z" fill="#6092C7"/>
<circle cx="336.5" cy="120.5" r="29.5" fill="#193047"/>
<path d="M138.733 203.691L146.739 216.376L102.141 246.889L92.0006 230.821L138.733 203.691Z" fill="#6092C7"/>
<path d="M214.675 2.35941L202.041 10.4456L175.494 -27.3205L191.497 -37.5631L214.675 2.35941Z" fill="#6092C7"/>
<path d="M111.181 100.923L98.5469 109.009L72.0002 71.243L88.003 61.0004L111.181 100.923Z" fill="#6092C7"/>
<path d="M344.667 131.389L357.173 123.105L388.661 167.019L372.822 177.512L344.667 131.389Z" fill="#6092C7"/>
<path d="M370.942 21.3302L377.421 34.8588L329.582 59.9866L321.375 42.8504L370.942 21.3302Z" fill="#6092C7"/>
<circle cx="273.5" cy="11.5" r="29.5" fill="#193047"/>
<path d="M276.709 150.846L291.236 154.58L283.819 191.472L265.418 186.742L276.709 150.846Z" fill="#6092C7"/>
<circle cx="264" cy="68" r="42" fill="white"/>
<circle cx="133" cy="178" r="42" fill="white"/>
<path d="M191.701 84.9209L196.96 70.8728L240.853 85.1677L234.193 102.962L191.701 84.9209Z" fill="#6092C7"/>
<circle cx="332.5" cy="253.5" r="29.5" fill="#193047"/>
<circle cx="85.5" cy="157.5" r="29.5" fill="#193047"/>
<circle cx="168.5" cy="274.5" r="29.5" fill="#193047"/>
<circle cx="214.5" cy="168.5" r="29.5" fill="#193047"/>
<circle cx="144.5" cy="40.5" r="29.5" fill="#193047"/>
</svg>
