<svg width="284" height="376" viewBox="0 0 284 376" fill="none" xmlns="http://www.w3.org/2000/svg">
<circle cx="46" cy="234" r="46" fill="#193047"/>
<circle cx="46" cy="234" r="38" fill="#FFD36E"/>
<circle cx="46" cy="234" r="18" fill="#193047"/>
<circle cx="46" cy="330" r="46" fill="#193047"/>
<circle cx="46" cy="330" r="38" fill="#FFD36E"/>
<circle cx="46" cy="330" r="18" fill="#193047"/>
<circle cx="142" cy="330" r="46" fill="#193047"/>
<circle cx="142" cy="330" r="38" fill="#FFD36E"/>
<circle cx="142" cy="330" r="18" fill="#193047"/>
<circle cx="238" cy="234" r="46" fill="#193047"/>
<circle cx="238" cy="234" r="38" fill="#FFD36E"/>
<circle cx="238" cy="234" r="18" fill="#193047"/>
<circle cx="238" cy="330" r="46" fill="#193047"/>
<circle cx="238" cy="330" r="38" fill="#FFD36E"/>
<circle cx="238" cy="330" r="18" fill="#193047"/>
<circle cx="137" cy="125" r="46" fill="#193047"/>
<circle cx="137" cy="125" r="38" fill="#FFD36E"/>
<circle cx="137" cy="125" r="18" fill="#193047"/>
<path d="M73 -254H97L90 184H80L73 -254Z" fill="white"/>
<path d="M107 -255.637L130.6 -260L203.334 171.975L193.5 173.793L107 -255.637Z" fill="white"/>
</svg>
