<svg width="358" height="400" viewBox="0 0 358 400" fill="none" xmlns="http://www.w3.org/2000/svg">
<path d="M0 363H358V368C358 385.673 343.673 400 326 400H32C14.3269 400 0 385.673 0 368V363Z" fill="white"/>
<path d="M0 326H358V331C358 348.673 343.673 363 326 363H32C14.3269 363 0 348.673 0 331V326Z" fill="white"/>
<path d="M252.333 0H199.167L199.301 92.4256C199.321 108.985 191.931 124.687 179.15 135.236C166.389 145.769 159 161.442 159 177.977V400H292V177.576C292 161.173 284.74 145.609 272.167 135.056C259.593 124.503 252.333 108.939 252.333 92.5361V0Z" fill="#193047"/>
<path d="M167 302.759C167 276.991 189.434 255.996 203.826 234.621C209.619 226.016 213 215.653 213 204.5V146H105V204.5C105 215.708 108.415 226.119 114.261 234.748C128.92 256.389 152 277.615 152 303.754V351.139C152 361.978 148.116 372.679 139.718 379.532C131.095 386.569 121.524 392.404 111.262 396.852L104 400H214L206.124 396.586C196.07 392.228 186.752 386.405 178.462 379.332C170.55 372.581 167 362.269 167 351.868V302.759Z" fill="#FFD36E"/>
</svg>
